<svg class="svg-icon" width="25px" height="25px" style="vertical-align:middle;fill:#bbb;overflow:hidden" viewBox="0 0 1024 1024" xmlns="http://www.w3.org/2000/svg">
    <path d="M841.97 123.886H347.1c-48.328 0-86.18 38.568-86.18 87.8v53.549h-55.873c-49.324 0-89.452 39.387-89.452 87.8V640.37c0 48.42 40.128 87.8 89.452 87.8h31.118v153.906h.062c.063 5.667 1.901 11.35 6.017 15.871a23.9 23.9 0 0 0 17.71 7.817c5.768 0 11.537-2.058 16.12-6.251l188.01-171.343H685.46l85.453 77.893a23.95 23.95 0 0 0 16.15 6.252c6.486 0 12.971-2.634 17.68-7.817 4.146-4.521 5.987-10.212 6.05-15.879h.062V634.72h31.116c49.294 0 89.42-39.387 89.42-87.8V211.685c-.001-48.412-40.127-87.8-89.422-87.8M445.531 680.28 284.056 827.452V680.367l-79.008-.086c-22.542 0-41.562-18.279-41.562-39.91V353.035c0-21.63 19.02-39.908 41.562-39.908h55.873V546.92c0 49.232 37.85 87.8 86.18 87.8h235.836l49.983 45.56zm437.97-133.36c0 21.631-18.988 39.91-41.53 39.91l-79.007.077v147.087L601.487 586.829H347.1c-21.482 0-38.289-17.529-38.289-39.909V211.685c0-22.38 16.807-39.909 38.29-39.909h494.87c22.543 0 41.529 18.279 41.529 39.91z"/>
</svg>
